<svg width="83" height="52" viewBox="0 0 83 52" fill="none" xmlns="http://www.w3.org/2000/svg">
<path d="M11.8267 52H0L35.8556 0H43.8652V52H38.2335V40.1733H19.9615L11.8267 52ZM25.9061 31.5379H38.2335V13.9543H38.0457L25.9061 31.5379Z" fill="#2000B1"/>
<path d="M41.2371 33.9783C42.5512 35.2924 44.7414 35.1672 45.8677 33.6654L46.2432 33.1648L46.1806 33.7906C45.9303 35.6053 47.3695 37.2948 49.2468 37.2948C51.124 37.2948 52.5633 35.6678 52.313 33.7906L52.2504 33.1648L52.6258 33.6654C53.7522 35.1672 55.9423 35.2924 57.2564 33.9783C58.5705 32.6642 58.4453 30.4741 56.9435 29.3478L56.4429 28.9723L57.0687 29.0349C58.8834 29.2852 60.5729 27.8459 60.5729 25.9687C60.5729 24.0914 58.9459 22.6522 57.0687 22.9025L56.4429 22.9651L56.9435 22.5896C58.4453 21.4633 58.5705 19.2731 57.2564 17.9591C55.9423 16.645 53.7522 16.7701 52.6258 18.2719L52.2504 18.7725L52.313 18.1468C52.5633 16.3321 51.124 14.6426 49.2468 14.6426C47.3695 14.6426 45.9303 16.2695 46.1806 18.1468L46.2432 18.7725L45.8677 18.2719C44.7414 16.7701 42.5512 16.645 41.2371 17.9591C39.9231 19.2731 40.0482 21.4633 41.55 22.5896L42.0506 22.9651L41.4249 22.9025C39.6102 22.6522 39.2347 24.0914 39.2347 25.9687C39.2347 27.8459 39.6102 29.2852 41.4249 29.0349L42.0506 28.9723L41.55 29.3478C40.0482 30.4741 39.9231 32.6642 41.2371 33.9783ZM47.2444 24.0914C48.3081 23.0277 50.0603 23.0277 51.124 24.0914C52.1878 25.1552 52.1878 26.9073 51.124 27.9711C50.0603 29.0349 48.3081 29.0349 47.2444 27.9711C46.1806 26.9073 46.1806 25.1552 47.2444 24.0914Z" fill="#2000B1"/>
<path d="M70.272 48.8712C74.0891 46.8063 76.9675 43.8026 79.0325 39.923C81.0975 36.0433 82.0987 31.3502 82.0987 25.9687C82.0987 20.5872 81.0975 15.9567 79.0325 12.077C77.0301 8.19735 74.0891 5.25632 70.3346 3.12876C66.58 1.06378 62.0746 0 56.8183 0H38.1709V52H56.6306C61.8869 52 66.4549 50.9362 70.272 48.8712ZM49.1841 42.6137V28.7846C47.6823 28.7846 46.4308 27.5331 46.4308 26.0313C46.4308 24.5295 47.6823 23.278 49.1841 23.278V9.44886H56.1926C59.4465 9.44886 62.1998 10.012 64.3899 11.201C66.58 12.3273 68.2696 14.142 69.3959 16.5824C70.5223 19.0229 71.0855 22.1516 71.0855 26.0313C71.0855 29.9109 70.5223 33.0397 69.3959 35.4801C68.2696 37.9206 66.58 39.7353 64.3899 40.9242C62.1998 42.1131 59.4465 42.6763 56.1926 42.6763H49.1841V42.6137Z" fill="#020035"/>
</svg>
